[   2s] CDP targets: 1
[   2s]   page: file:///C:/Users/stduser/.comfy-test-cache/desktop/ComfyUI/resources/desktop-ui/index.html#/not-supported | ComfyUI
[   3s] Main page: file:///C:/Users/stduser/.comfy-test-cache/desktop/ComfyUI/resources/desktop-ui/index.html#/not-supported | ComfyUI
[   3s] Buttons: ['Learn More', 'Report Issue', 'Continue']
[   3s]   wizard: COMFY_TEST_GPU=0 platform=win32 preferred=['CPU']
[   6s]   clicked [BTN|Continue]
[   9s]   url: file:///C:/Users/stduser/.comfy-test-cache/desktop/ComfyUI/resources/desktop-ui/index.html#/not-supported -> file:///C:/Users/stduser/.comfy-test-cache/desktop/ComfyUI/resources/desktop-ui/index.html#/install
[  10s]   clicked [TILE|CPU]
[  13s]   clicked [BTN|Next]
[  20s]   clicked [BTN|Next]
[  26s]   clicked [BTN|Install]
[  29s]   url: file:///C:/Users/stduser/.comfy-test-cache/desktop/ComfyUI/resources/desktop-ui/index.html#/install -> file:///C:/Users/stduser/.comfy-test-cache/desktop/ComfyUI/resources/desktop-ui/index.html#/server-start
[ 144s]   /system_stats up after 141s
[ 144s]   app: waiting for backend stability (continuous /system_stats up for 30s)
[ 144s]   app: /system_stats up; awaiting 30s of stability
[ 175s]   app: backend stable for 30s; proceeding
[ 175s]   capturing canvas load...
[ 183s]   post: waiting for Cloud upsell
[ 216s]   post: Cloud upsell not found, skipping
[ 216s]   post: pressed Escape (Cloud upsell fallback)
[ 218s]   post: waiting for Close Templates
[ 230s]   post: Close Templates not found, skipping
[ 230s]   post: pressed Escape (Close Templates fallback)
[ 232s]   post: waiting for Extensions
[ 233s]   post: clicked Extensions via [button[aria-label="Extensions"]:visible]
[ 235s]   ext: node meta = display='SAM3' publisher='pznodes' version='0.1.21'
[ 239s]   ext: searching "SAM3"
[ 242s]   ext: clicking SAM3 by pznodes tile
[ 245s]   ext: scrolling to + opening version selector
[ 249s]   ext: selected Latest
[ 250s]   ext: clicking right-panel Install
[ 252s]   ext: clicked Install (last of 8 visible)
[ 260s]   ext: waiting for "Apply Changes" toast
[ 275s]   ext: clicked Apply Changes
[ 280s]   app: Apply Changes already triggered in-app restart, skipping pkill
[ 285s]   app: relaunching with CDP
[ 285s]   app: waiting for CDP
[ 286s]   app: CDP up after 1s
[ 286s]   app: reconnecting Playwright
[ 287s]   app: attached to http://127.0.0.1:8000/
[ 404s]   app: server ready after 29s
[ 404s]   app: waiting for main canvas (window.app.graph)
[ 404s]   app: canvas ready after 1s (http://127.0.0.1:8000/)
[ 409s]   app: forcing renderer reload to refresh node-pack manifest
[ 412s]   app: canvas re-ready after reload in 3s
[ 416s]   ext: closing Nodes Manager dialog
[ 416s]   ext: dismissing What's New popup
[ 416s]   ext: closed What's New popup
[ 418s]   ext: dismissing Node Pack Issues modal (if present)
[ 418s]   ext: Node Pack Issues modal not present
[ 418s]   ext: opening Templates sidebar
[ 419s]   ext: clicked Templates
[ 423s]   ext: locating "comfyui-sam3" section in Templates panel
[ 425s]   ext: clicked comfyui-sam3 section
[ 427s]   ext: fetching comfy-test.toml from https://raw.githubusercontent.com/PozzettiAndrea/ComfyUI-SAM3/main/comfy-test.toml
[ 427s]   ext: cpu spec = exclude ['video_point_prompt']
[ 427s]   ext: picking first matching comfyui-sam3 template
[ 427s]   ext: 5 visible cards
[ 429s]   ext: clicked template image_seg_point
[ 434s]   ext: installing WS execution listener
[ 434s]   ext: clicking Run
[ 435s]   ext: clicked Run
[ 435s]   ext: waiting for execution_success / execution_error
[ 545s]   ext: WS events=230 elapsed=110s
[ 545s]     ws: {'type': 'progress_state', 'ts': 1779188100599}
[ 545s]     ws: {'type': 'progress_state', 'ts': 1779188100601}
[ 545s]     ws: {'type': 'executing', 'ts': 1779188100612}
[ 545s]     ws: {'type': 'progress_state', 'ts': 1779188174265}
[ 545s]     ws: {'type': 'progress_state', 'ts': 1779188174267}
[ 545s]     ws: {'type': 'executing', 'ts': 1779188174267}
[ 545s]     ws: {'type': 'executed', 'ts': 1779188174585}
[ 545s]     ws: {'type': 'progress_state', 'ts': 1779188174599}
[ 545s]     ws: {'type': 'progress_state', 'ts': 1779188174601}
[ 545s]     ws: {'type': 'executing', 'ts': 1779188174601}
[ 545s]     ws: {'type': 'executed', 'ts': 1779188174671}
[ 545s]     ws: {'type': 'progress_state', 'ts': 1779188174673}
[ 545s]     ws: {'type': 'execution_success', 'ts': 1779188174677}
[ 545s]     ws: {'type': 'status', 'ts': 1779188174678}
[ 545s]     ws: {'type': 'executing', 'ts': 1779188174678}
[ 545s]   ext: execution_success after 110s
[ 550s]   ext: fetching comfy-test.toml from https://raw.githubusercontent.com/PozzettiAndrea/ComfyUI-SAM3/main/comfy-test.toml
[ 550s]   ext: cpu spec = exclude ['video_point_prompt']
[ 550s]   loop: workflows/ from $COMFY_TEST_WORKFLOWS -> ['image_seg_point', 'image_seg_text', 'scene_seg', 'scene_seg_interactive', 'video_point_prompt']
[ 550s]   loop: spec=exclude items=['video_point_prompt'] -> 4 workflow(s) ['image_seg_point', 'image_seg_text', 'scene_seg', 'scene_seg_interactive']
[ 550s]   loop: matching=4 first_ran='image_seg_point' remaining=3 -> ['image_seg_text', 'scene_seg', 'scene_seg_interactive']
[ 550s]   loop: full restart for workflow 2/4 (image_seg_text)
[ 550s]   loop: closing current browser
[ 550s]   loop: killing ComfyUI process
[ 555s]   loop: launching ComfyUI with --remote-debugging-port=0
[ 555s]   loop: waiting for DevToolsActivePort at C:\Users\stduser\AppData\Roaming\ComfyUI\DevToolsActivePort
[ 560s]   loop: DevToolsActivePort -> 64066 after 5s
[ 560s]   loop: reconnecting Playwright on port 64066
[ 561s]   loop: attached to file:///C:/Users/stduser/.comfy-test-cache/desktop/ComfyUI/resources/desktop-ui/index.html#desktop-start
[ 561s]   loop: server ready after 1s
[ 688s]   loop: canvas not ready in 120s (still at file:///C:/Users/stduser/.comfy-test-cache/desktop/ComfyUI/resources/desktop-ui/index.html#/server-start)
[ 688s]   loop: forcing renderer reload
[ 751s]   loop: canvas not ready in 60s (still at file:///C:/Users/stduser/.comfy-test-cache/desktop/ComfyUI/resources/desktop-ui/index.html#/server-start)
[ 754s]   ext: closing Nodes Manager dialog
[ 754s]   ext: dismissing What's New popup
[ 754s]   ext: What's New popup not present
[ 754s]   ext: dismissing Node Pack Issues modal (if present)
[ 754s]   ext: Node Pack Issues modal not present
[ 754s]   ext: opening Templates sidebar
[ 754s]   ext: Templates sidebar button not found
[ 754s]   loop: Templates+section open failed for image_seg_text; recording fail
[ 754s]   loop: full restart for workflow 3/4 (scene_seg)
[ 754s]   loop: closing current browser
[ 754s]   loop: killing ComfyUI process
[ 759s]   loop: launching ComfyUI with --remote-debugging-port=0
[ 759s]   loop: waiting for DevToolsActivePort at C:\Users\stduser\AppData\Roaming\ComfyUI\DevToolsActivePort
[ 761s]   loop: DevToolsActivePort -> 64158 after 3s
[ 761s]   loop: reconnecting Playwright on port 64158
[ 762s]   loop: attached to file:///C:/Users/stduser/.comfy-test-cache/desktop/ComfyUI/resources/desktop-ui/index.html#/desktop-start
[ 762s]   loop: server ready after 1s
[ 889s]   loop: canvas not ready in 120s (still at file:///C:/Users/stduser/.comfy-test-cache/desktop/ComfyUI/resources/desktop-ui/index.html#/server-start)
[ 889s]   loop: forcing renderer reload
[ 952s]   loop: canvas not ready in 60s (still at file:///C:/Users/stduser/.comfy-test-cache/desktop/ComfyUI/resources/desktop-ui/index.html#/server-start)
[ 955s]   ext: closing Nodes Manager dialog
[ 955s]   ext: dismissing What's New popup
[ 955s]   ext: What's New popup not present
[ 955s]   ext: dismissing Node Pack Issues modal (if present)
[ 955s]   ext: Node Pack Issues modal not present
[ 955s]   ext: opening Templates sidebar
[ 955s]   ext: Templates sidebar button not found
[ 955s]   loop: Templates+section open failed for scene_seg; recording fail
[ 955s]   loop: full restart for workflow 4/4 (scene_seg_interactive)
[ 955s]   loop: closing current browser
[ 955s]   loop: killing ComfyUI process
[ 960s]   loop: launching ComfyUI with --remote-debugging-port=0
[ 960s]   loop: waiting for DevToolsActivePort at C:\Users\stduser\AppData\Roaming\ComfyUI\DevToolsActivePort
[ 962s]   loop: DevToolsActivePort -> 64255 after 3s
[ 962s]   loop: reconnecting Playwright on port 64255
[ 963s]   loop: attached to file:///C:/Users/stduser/.comfy-test-cache/desktop/ComfyUI/resources/desktop-ui/index.html#/desktop-start
[ 963s]   loop: server ready after 1s
[1091s]   loop: canvas not ready in 120s (still at file:///C:/Users/stduser/.comfy-test-cache/desktop/ComfyUI/resources/desktop-ui/index.html#/server-start)
[1091s]   loop: forcing renderer reload
[1159s]   loop: canvas not ready in 60s (still at file:///C:/Users/stduser/.comfy-test-cache/desktop/ComfyUI/resources/desktop-ui/index.html#/server-start)
[1163s]   ext: closing Nodes Manager dialog
[1163s]   ext: dismissing What's New popup
[1163s]   ext: What's New popup not present
[1163s]   ext: dismissing Node Pack Issues modal (if present)
[1163s]   ext: Node Pack Issues modal not present
[1163s]   ext: opening Templates sidebar
[1163s]   ext: Templates sidebar button not found
[1163s]   loop: Templates+section open failed for scene_seg_interactive; recording fail
[1163s] Captured 1145 frames
[1163s] Wrote D:\a\comfy-gpu-ci\comfy-gpu-ci\comfy-test-logs\SAM3-1046\dev\windows-desktop\results.json (4 workflow(s), sha=de0ff5d2c2ea)
ffmpeg version 7.1-essentials_build-www.gyan.dev Copyright (c) 2000-2024 the FFmpeg developers
  built with gcc 14.2.0 (Rev1, Built by MSYS2 project)
  configuration: --enable-gpl --enable-version3 --enable-static --disable-w32threads --disable-autodetect --enable-fontconfig --enable-iconv --enable-gnutls --enable-libxml2 --enable-gmp --enable-bzlib --enable-lzma --enable-zlib --enable-libsrt --enable-libssh --enable-libzmq --enable-avisynth --enable-sdl2 --enable-libwebp --enable-libx264 --enable-libx265 --enable-libxvid --enable-libaom --enable-libopenjpeg --enable-libvpx --enable-mediafoundation --enable-libass --enable-libfreetype --enable-libfribidi --enable-libharfbuzz --enable-libvidstab --enable-libvmaf --enable-libzimg --enable-amf --enable-cuda-llvm --enable-cuvid --enable-dxva2 --enable-d3d11va --enable-d3d12va --enable-ffnvcodec --enable-libvpl --enable-nvdec --enable-nvenc --enable-vaapi --enable-libgme --enable-libopenmpt --enable-libopencore-amrwb --enable-libmp3lame --enable-libtheora --enable-libvo-amrwbenc --enable-libgsm --enable-libopencore-amrnb --enable-libopus --enable-libspeex --enable-libvorbis --enable-librubberband
  libavutil      59. 39.100 / 59. 39.100
  libavcodec     61. 19.100 / 61. 19.100
  libavformat    61.  7.100 / 61.  7.100
  libavdevice    61.  3.100 / 61.  3.100
  libavfilter    10.  4.100 / 10.  4.100
  libswscale      8.  3.100 /  8.  3.100
  libswresample   5.  3.100 /  5.  3.100
  libpostproc    58.  3.100 / 58.  3.100
Input #0, image2, from 'D:\a\comfy-gpu-ci\comfy-gpu-ci\comfy-test-logs\SAM3-1046\dev\windows-desktop\debug\electron_inspect\frames\frame_%06d.png':
  Duration: 00:03:49.00, start: 0.000000, bitrate: N/A
  Stream #0:0: Video: png, rgb24(pc, gbr/bt709/iec61966-2-1), 1008x681, 5 fps, 5 tbr, 5 tbn
Stream mapping:
  Stream #0:0 -> #0:0 (png (native) -> h264 (libx264))
Press [q] to stop, [?] for help
[libx264 @ 0000020665953280] using cpu capabilities: MMX2 SSE2Fast SSSE3 SSE4.2 AVX FMA3 BMI2 AVX2
[libx264 @ 0000020665953280] profile High, level 3.1, 4:2:0, 8-bit
[libx264 @ 0000020665953280] 264 - core 164 r3192 c24e06c - H.264/MPEG-4 AVC codec - Copyleft 2003-2024 - http://www.videolan.org/x264.html - options: cabac=1 ref=3 deblock=1:0:0 analyse=0x3:0x113 me=hex subme=7 psy=1 psy_rd=1.00:0.00 mixed_ref=1 me_range=16 chroma_me=1 trellis=1 8x8dct=1 cqm=0 deadzone=21,11 fast_pskip=1 chroma_qp_offset=-2 threads=6 lookahead_threads=1 sliced_threads=0 nr=0 decimate=1 interlaced=0 bluray_compat=0 constrained_intra=0 bframes=3 b_pyramid=2 b_adapt=1 b_bias=0 direct=1 weightb=1 open_gop=0 weightp=2 keyint=250 keyint_min=5 scenecut=40 intra_refresh=0 rc_lookahead=40 rc=crf mbtree=1 crf=23.0 qcomp=0.60 qpmin=0 qpmax=69 qpstep=4 ip_ratio=1.40 aq=1:1.00
Output #0, mp4, to 'D:\a\comfy-gpu-ci\comfy-gpu-ci\comfy-test-logs\SAM3-1046\dev\windows-desktop\debug\electron_inspect\driver.mp4':
  Metadata:
    encoder         : Lavf61.7.100
  Stream #0:0: Video: h264 (avc1 / 0x31637661), yuv420p(tv, unknown/bt709/iec61966-2-1, progressive), 1008x682, q=2-31, 5 fps, 10240 tbn
      Metadata:
        encoder         : Lavc61.19.100 libx264
      Side data:
        cpb: bitrate max/min/avg: 0/0/0 buffer size: 0 vbv_delay: N/A
[vf#0:0 @ 0000020665953a80] Reconfiguring filter graph because video parameters changed to rgba(pc, gbr), 1008x681
frame=   11 fps=0.0 q=23.0 size=       0KiB time=00:00:01.80 bitrate=   0.2kbits/s speed=2.96x    
frame=   48 fps= 43 q=23.0 size=       0KiB time=00:00:09.20 bitrate=   0.0kbits/s speed=8.21x    
[vf#0:0 @ 0000020665953a80] Reconfiguring filter graph because video parameters changed to rgb24(pc, gbr), 1008x681
frame=   98 fps= 60 q=23.0 size=     256KiB time=00:00:19.20 bitrate= 109.2kbits/s speed=11.8x    
frame=  143 fps= 65 q=23.0 size=     256KiB time=00:00:28.20 bitrate=  74.4kbits/s speed=12.8x    
frame=  198 fps= 72 q=23.0 size=     512KiB time=00:00:39.20 bitrate= 107.0kbits/s speed=14.2x    
frame=  266 fps= 81 q=23.0 size=     512KiB time=00:00:52.80 bitrate=  79.4kbits/s speed=16.1x    
[vf#0:0 @ 0000020665953a80] Reconfiguring filter graph because video parameters changed to rgba(pc, gbr), 1008x681
[vf#0:0 @ 0000020665953a80] Reconfiguring filter graph because video parameters changed to rgb24(pc, gbr), 1008x681
frame=  315 fps= 83 q=23.0 size=     512KiB time=00:01:02.60 bitrate=  67.0kbits/s speed=16.5x    
frame=  355 fps= 82 q=23.0 size=    1024KiB time=00:01:10.60 bitrate= 118.8kbits/s speed=16.3x    
frame=  417 fps= 86 q=23.0 size=    1024KiB time=00:01:23.00 bitrate= 101.1kbits/s speed=  17x    
frame=  467 fps= 87 q=23.0 size=    1024KiB time=00:01:33.00 bitrate=  90.2kbits/s speed=17.3x    
frame=  515 fps= 87 q=23.0 size=    1024KiB time=00:01:42.60 bitrate=  81.8kbits/s speed=17.4x    
frame=  586 fps= 91 q=23.0 size=    1024KiB time=00:01:56.80 bitrate=  71.8kbits/s speed=18.1x    
frame=  666 fps= 96 q=23.0 size=    1024KiB time=00:02:12.80 bitrate=  63.2kbits/s speed=19.1x    
frame=  758 fps=101 q=23.0 size=    1024KiB time=00:02:31.20 bitrate=  55.5kbits/s speed=20.2x    
frame=  842 fps=105 q=23.0 size=    1024KiB time=00:02:48.00 bitrate=  49.9kbits/s speed=  21x    
frame=  926 fps=108 q=23.0 size=    1024KiB time=00:03:04.80 bitrate=  45.4kbits/s speed=21.6x    
frame= 1013 fps=112 q=23.0 size=    1024KiB time=00:03:22.20 bitrate=  41.5kbits/s speed=22.3x    
frame= 1139 fps=119 q=23.0 size=    1280KiB time=00:03:47.40 bitrate=  46.1kbits/s speed=23.7x    
[out#0/mp4 @ 0000020665cc5600] video:1281KiB audio:0KiB subtitle:0KiB other streams:0KiB global headers:0KiB muxing overhead: 1.107298%
frame= 1145 fps=119 q=-1.0 Lsize=    1295KiB time=00:03:48.60 bitrate=  46.4kbits/s speed=23.8x    
[libx264 @ 0000020665953280] frame I:12    Avg QP: 7.48  size: 40052
[libx264 @ 0000020665953280] frame P:297   Avg QP: 9.48  size:  1876
[libx264 @ 0000020665953280] frame B:836   Avg QP:14.92  size:   327
[libx264 @ 0000020665953280] consecutive B-frames:  2.0%  1.2%  2.1% 94.7%
[libx264 @ 0000020665953280] mb I  I16..4: 58.3% 12.1% 29.6%
[libx264 @ 0000020665953280] mb P  I16..4:  1.4%  1.0%  1.1%  P16..4:  0.9%  0.2%  0.2%  0.0%  0.0%    skip:95.2%
[libx264 @ 0000020665953280] mb B  I16..4:  0.0%  0.1%  0.1%  B16..8:  2.3%  0.1%  0.0%  direct: 0.0%  skip:97.2%  L0:61.8% L1:37.4% BI: 0.8%
[libx264 @ 0000020665953280] 8x8 transform intra:22.3% inter:43.4%
[libx264 @ 0000020665953280] coded y,uvDC,uvAC intra: 34.0% 16.7% 12.9% inter: 0.3% 0.2% 0.0%
[libx264 @ 0000020665953280] i16 v,h,dc,p: 72% 24%  2%  1%
[libx264 @ 0000020665953280] i8 v,h,dc,ddl,ddr,vr,hd,vl,hu: 34% 16% 38%  2%  2%  2%  3%  2%  3%
[libx264 @ 0000020665953280] i4 v,h,dc,ddl,ddr,vr,hd,vl,hu: 39% 30% 12%  2%  3%  3%  4%  3%  4%
[libx264 @ 0000020665953280] i8c dc,h,v,p: 81% 11%  6%  2%
[libx264 @ 0000020665953280] Weighted P-Frames: Y:1.0% UV:0.7%
[libx264 @ 0000020665953280] ref P L0: 68.3% 12.6% 13.2%  5.9%  0.0%
[libx264 @ 0000020665953280] ref B L0: 61.8% 37.1%  1.1%
[libx264 @ 0000020665953280] ref B L1: 97.6%  2.4%
[libx264 @ 0000020665953280] kb/s:45.80
[1173s] Wrote D:\a\comfy-gpu-ci\comfy-gpu-ci\comfy-test-logs\SAM3-1046\dev\windows-desktop\debug\electron_inspect\driver.mp4
ffmpeg version 7.1-essentials_build-www.gyan.dev Copyright (c) 2000-2024 the FFmpeg developers
  built with gcc 14.2.0 (Rev1, Built by MSYS2 project)
  configuration: --enable-gpl --enable-version3 --enable-static --disable-w32threads --disable-autodetect --enable-fontconfig --enable-iconv --enable-gnutls --enable-libxml2 --enable-gmp --enable-bzlib --enable-lzma --enable-zlib --enable-libsrt --enable-libssh --enable-libzmq --enable-avisynth --enable-sdl2 --enable-libwebp --enable-libx264 --enable-libx265 --enable-libxvid --enable-libaom --enable-libopenjpeg --enable-libvpx --enable-mediafoundation --enable-libass --enable-libfreetype --enable-libfribidi --enable-libharfbuzz --enable-libvidstab --enable-libvmaf --enable-libzimg --enable-amf --enable-cuda-llvm --enable-cuvid --enable-dxva2 --enable-d3d11va --enable-d3d12va --enable-ffnvcodec --enable-libvpl --enable-nvdec --enable-nvenc --enable-vaapi --enable-libgme --enable-libopenmpt --enable-libopencore-amrwb --enable-libmp3lame --enable-libtheora --enable-libvo-amrwbenc --enable-libgsm --enable-libopencore-amrnb --enable-libopus --enable-libspeex --enable-libvorbis --enable-librubberband
  libavutil      59. 39.100 / 59. 39.100
  libavcodec     61. 19.100 / 61. 19.100
  libavformat    61.  7.100 / 61.  7.100
  libavdevice    61.  3.100 / 61.  3.100
  libavfilter    10.  4.100 / 10.  4.100
  libswscale      8.  3.100 /  8.  3.100
  libswresample   5.  3.100 /  5.  3.100
  libpostproc    58.  3.100 / 58.  3.100
Input #0, image2, from 'D:\a\comfy-gpu-ci\comfy-gpu-ci\comfy-test-logs\SAM3-1046\dev\windows-desktop\debug\electron_inspect\frames\frame_%06d.png':
  Duration: 00:02:33.40, start: 0.000000, bitrate: N/A
  Stream #0:0: Video: png, rgb24(pc, gbr/bt709/iec61966-2-1), 1008x681, 5 fps, 5 tbr, 5 tbn
Stream mapping:
  Stream #0:0 -> #0:0 (png (native) -> h264 (libx264))
Press [q] to stop, [?] for help
[libx264 @ 000001f733ea2f40] using cpu capabilities: MMX2 SSE2Fast SSSE3 SSE4.2 AVX FMA3 BMI2 AVX2
[libx264 @ 000001f733ea2f40] profile High, level 3.1, 4:2:0, 8-bit
[libx264 @ 000001f733ea2f40] 264 - core 164 r3192 c24e06c - H.264/MPEG-4 AVC codec - Copyleft 2003-2024 - http://www.videolan.org/x264.html - options: cabac=1 ref=3 deblock=1:0:0 analyse=0x3:0x113 me=hex subme=7 psy=1 psy_rd=1.00:0.00 mixed_ref=1 me_range=16 chroma_me=1 trellis=1 8x8dct=1 cqm=0 deadzone=21,11 fast_pskip=1 chroma_qp_offset=-2 threads=6 lookahead_threads=1 sliced_threads=0 nr=0 decimate=1 interlaced=0 bluray_compat=0 constrained_intra=0 bframes=3 b_pyramid=2 b_adapt=1 b_bias=0 direct=1 weightb=1 open_gop=0 weightp=2 keyint=250 keyint_min=5 scenecut=40 intra_refresh=0 rc_lookahead=40 rc=crf mbtree=1 crf=23.0 qcomp=0.60 qpmin=0 qpmax=69 qpstep=4 ip_ratio=1.40 aq=1:1.00
Output #0, mp4, to 'D:\a\comfy-gpu-ci\comfy-gpu-ci\comfy-test-logs\SAM3-1046\dev\windows-desktop\videos\image_seg_point\driver.mp4':
  Metadata:
    encoder         : Lavf61.7.100
  Stream #0:0: Video: h264 (avc1 / 0x31637661), yuv420p(tv, unknown/bt709/iec61966-2-1, progressive), 1008x682, q=2-31, 5 fps, 10240 tbn
      Metadata:
        encoder         : Lavc61.19.100 libx264
      Side data:
        cpb: bitrate max/min/avg: 0/0/0 buffer size: 0 vbv_delay: N/A
frame=    9 fps=0.0 q=23.0 size=       0KiB time=00:00:01.40 bitrate=   0.3kbits/s speed=2.75x    
frame=   46 fps= 45 q=23.0 size=       0KiB time=00:00:08.80 bitrate=   0.0kbits/s speed=8.55x    
frame=   99 fps= 63 q=23.0 size=       0KiB time=00:00:19.40 bitrate=   0.0kbits/s speed=12.3x    
frame=  166 fps= 80 q=23.0 size=       0KiB time=N/A bitrate=N/A speed=N/A    
[out#0/mp4 @ 000001f7341ac5c0] video:120KiB audio:0KiB subtitle:0KiB other streams:0KiB global headers:0KiB muxing overhead: 2.567622%
frame=  190 fps= 86 q=-1.0 Lsize=     123KiB time=00:00:37.60 bitrate=  26.7kbits/s speed=  17x    
[libx264 @ 000001f733ea2f40] frame I:1     Avg QP:11.00  size: 48372
[libx264 @ 000001f733ea2f40] frame P:48    Avg QP:14.34  size:   830
[libx264 @ 000001f733ea2f40] frame B:141   Avg QP:23.21  size:   238
[libx264 @ 000001f733ea2f40] consecutive B-frames:  1.1%  0.0%  0.0% 98.9%
[libx264 @ 000001f733ea2f40] mb I  I16..4: 44.2% 29.6% 26.2%
[libx264 @ 000001f733ea2f40] mb P  I16..4:  0.3%  0.0%  0.2%  P16..4:  0.9%  0.1%  0.1%  0.0%  0.0%    skip:98.4%
[libx264 @ 000001f733ea2f40] mb B  I16..4:  0.0%  0.1%  0.0%  B16..8:  5.6%  0.2%  0.0%  direct: 0.0%  skip:94.1%  L0:57.8% L1:41.6% BI: 0.5%
[libx264 @ 000001f733ea2f40] 8x8 transform intra:29.4% inter:46.4%
[libx264 @ 000001f733ea2f40] coded y,uvDC,uvAC intra: 40.3% 17.7% 14.2% inter: 0.1% 0.1% 0.0%
[libx264 @ 000001f733ea2f40] i16 v,h,dc,p: 54% 46%  0%  0%
[libx264 @ 000001f733ea2f40] i8 v,h,dc,ddl,ddr,vr,hd,vl,hu: 33% 16% 51%  0%  0%  0%  0%  0%  0%
[libx264 @ 000001f733ea2f40] i4 v,h,dc,ddl,ddr,vr,hd,vl,hu: 36% 35% 10%  2%  3%  3%  4%  3%  4%
[libx264 @ 000001f733ea2f40] i8c dc,h,v,p: 70% 22%  7%  1%
[libx264 @ 000001f733ea2f40] Weighted P-Frames: Y:0.0% UV:0.0%
[libx264 @ 000001f733ea2f40] ref P L0: 74.5%  0.7% 18.2%  6.7%
[libx264 @ 000001f733ea2f40] ref B L0: 48.6% 50.7%  0.6%
[libx264 @ 000001f733ea2f40] ref B L1: 98.0%  2.0%
[libx264 @ 000001f733ea2f40] kb/s:25.63
[1175s]   videos/image_seg_point/driver.mp4 placed (frames 379..568)
[1175s]   screenshots/image_seg_point_executed.png placed
[1175s]   removed D:\a\comfy-gpu-ci\comfy-gpu-ci\comfy-test-logs\SAM3-1046\dev\windows-desktop\debug\electron_inspect\frames after successful encode
